<svg xmlns="http://www.w3.org/2000/svg" width="24" height="24" viewBox="0 0 24 24"><defs><style>.a{fill:none;}.b{fill:#202022;}</style></defs><rect class="a" width="24" height="24"/><g transform="translate(-1968.449 -180.447)"><g transform="translate(1971.449 192.345)"><path class="b" d="M1988.925,219.769a.909.909,0,0,1-.909-.909,7.375,7.375,0,0,0-14.749,0,.909.909,0,0,1-1.818,0,9.193,9.193,0,0,1,18.385,0A.909.909,0,0,1,1988.925,219.769Z" transform="translate(-1971.449 -209.667)"/></g><g transform="translate(1974.777 182.447)"><path class="b" d="M1986.465,194.177a5.865,5.865,0,1,1,5.865-5.865A5.871,5.871,0,0,1,1986.465,194.177Zm0-9.912a4.047,4.047,0,1,0,4.047,4.047A4.052,4.052,0,0,0,1986.465,184.265Z" transform="translate(-1980.6 -182.447)"/></g></g></svg>