<svg xmlns="http://www.w3.org/2000/svg" width="20" height="14.443" viewBox="0 0 20 14.443"><defs><style>.a{fill:#202022;}</style></defs><g transform="translate(11.87 0)"><path class="a" d="M176.68,204.531a.9.9,0,0,0,.643-.267l6.312-6.312a.908.908,0,0,0,0-1.285l-6.312-6.312a.909.909,0,0,0-1.285,1.286l5.669,5.669-5.669,5.669a.909.909,0,0,0,.643,1.552Z" transform="translate(-175.771 -190.089)"/></g><g transform="translate(0 6.312)"><path class="a" d="M176.68,209.265h18.182a.909.909,0,0,0,0-1.818H176.68a.909.909,0,0,0,0,1.818Z" transform="translate(-175.771 -207.447)"/></g></svg>