<svg xmlns="http://www.w3.org/2000/svg" width="172.521" height="105.283" viewBox="0 0 172.521 105.283"><defs><style>.a,.c{fill:none;}.b{fill:#fa82a7;opacity:0.248;}.c{stroke:#fa82a7;stroke-linecap:round;stroke-width:3px;stroke-dasharray:6 8;opacity:0.25;}</style></defs><g transform="translate(19194.521 20731.264)"><rect class="a" width="163" height="99" transform="translate(-19185 -20727)"/><g transform="matrix(0.998, -0.07, 0.07, 0.998, 2306.078, -1517.039)"><path class="b" d="M29.691,48.746h-.024a1.283,1.283,0,0,1-1.189-.868l-7.04-20.569L.868,20.269a1.283,1.283,0,0,1-.045-2.411L47,.085a1.282,1.282,0,0,1,1.657,1.657L30.888,47.924A1.283,1.283,0,0,1,29.691,48.746ZM5.038,18.985l17.825,6.1a1.281,1.281,0,0,1,.8.8l6.1,17.824L45.23,3.517Z" transform="matrix(0.978, 0.208, -0.208, 0.978, -19987.221, -20644.443)"/><path class="c" d="M-21394.436-22664.031c-13.934,11.215-91.527,42.459-120.158,16.752s-.25-61.889,22.115-51.223,5.912,53.217-45.365,89.65" transform="translate(1431.309 2045.024)"/></g></g></svg>