<?xml version="1.0" standalone="no"?>
<!DOCTYPE svg PUBLIC "-//W3C//DTD SVG 20010904//EN"
 "http://www.w3.org/TR/2001/REC-SVG-20010904/DTD/svg10.dtd">
<svg version="1.0" xmlns="http://www.w3.org/2000/svg"
 width="24" height="24" viewBox="0 0 24 24"
 preserveAspectRatio="xMidYMid meet">
<metadata>
Created by potrace 1.16, written by Peter Selinger 2001-2019
</metadata>
<g transform="translate(0.000000,195.000000) scale(0.100000,-0.100000)"
fill="#000000" stroke="none">
<path d="M831 1887 c-19 -7 -45 -29 -58 -47 -20 -30 -23 -46 -23 -127 0 -82 2
-94 20 -105 39 -25 26 -67 -40 -133 -73 -73 -115 -131 -126 -176 -4 -19 -8
-284 -9 -590 l0 -555 29 -35 c62 -74 158 -101 230 -64 21 11 32 12 42 4 23
-19 126 -23 158 -6 28 15 49 13 74 -6 24 -19 128 -1 169 29 74 52 80 91 75
481 -2 158 -4 172 -21 178 -38 12 -51 -4 -51 -61 l0 -54 -75 0 c-65 0 -107
-10 -125 -31 -17 -19 -77 -31 -137 -27 -53 3 -77 9 -108 31 -34 23 -50 27
-111 27 l-72 0 -7 113 c-4 61 -5 156 -3 209 l3 98 82 0 c48 0 85 4 89 11 12
21 96 49 146 49 49 0 109 -21 136 -47 9 -8 42 -13 93 -13 l79 0 0 -33 c0 -42
38 -69 66 -46 14 12 16 32 11 164 -6 196 -15 222 -124 334 -62 64 -83 92 -83
112 0 18 6 28 20 32 18 5 20 14 20 100 0 168 -18 185 -207 192 -90 3 -138 1
-162 -8z m289 -136 c3 -38 1 -65 -5 -66 -5 -2 -72 -6 -147 -9 l-138 -7 0 58
c0 32 4 64 9 72 13 20 77 27 185 21 l91 -5 5 -64z m-30 -186 c0 -51 19 -83 89
-148 34 -31 61 -59 61 -62 0 -3 8 -18 18 -32 19 -30 40 -119 41 -175 l1 -38
-69 0 c-39 0 -72 4 -76 9 -10 17 -66 40 -124 52 -48 9 -69 8 -120 -5 -35 -9
-76 -25 -91 -36 -21 -15 -44 -20 -94 -20 l-66 0 0 54 c0 101 26 156 124 256
74 78 76 81 76 130 l0 50 115 0 115 0 0 -35z m-282 -1029 c34 -52 218 -70 299
-28 23 12 44 26 48 32 7 11 103 14 129 4 14 -5 16 -31 16 -182 l0 -175 -40
-39 c-41 -38 -78 -48 -109 -29 -10 6 -11 13 -2 29 16 30 14 99 -3 105 -29 11
-56 -4 -56 -32 0 -68 -59 -119 -123 -107 -44 8 -87 50 -87 86 0 38 -32 65 -59
50 -25 -13 -28 -61 -7 -102 13 -25 13 -26 -13 -30 -42 -6 -88 10 -110 38 -19
25 -21 40 -21 205 0 200 -7 185 83 186 26 0 51 -5 55 -11z"/>
<path d="M888 953 c-71 -4 -94 -18 -83 -53 6 -19 14 -20 174 -20 134 0 171 3
180 14 20 24 -4 56 -42 56 -18 0 -61 2 -97 4 -36 2 -95 1 -132 -1z"/>
<path d="M810 785 c-6 -8 -9 -23 -6 -33 6 -16 20 -20 113 -25 196 -13 220 -11
240 19 16 25 16 27 -2 40 -28 21 -328 20 -345 -1z"/>
</g>
</svg>
