<svg xmlns="http://www.w3.org/2000/svg" width="24" height="24" viewBox="0 0 24 24"><defs><style>.a{fill:none;}.b{fill:#202022;}</style></defs><rect class="a" width="24" height="24"/><g transform="translate(-1569.447 -181.719)"><g transform="translate(1580.539 184.719)"><path class="b" d="M1604.8,195.628a.909.909,0,0,1-.644-1.551l.112-.112a4.351,4.351,0,1,0-6.152-6.154l-.112.111a.909.909,0,0,1-1.285-1.285l.111-.111a6.169,6.169,0,1,1,8.724,8.723l-.111.111A.9.9,0,0,1,1604.8,195.628Z" transform="translate(-1596.449 -184.719)"/></g><g transform="translate(1571.448 184.719)"><path class="b" d="M1574.01,195.628a.905.905,0,0,1-.643-.267l-.112-.112a6.169,6.169,0,1,1,8.724-8.723l.111.11a.909.909,0,1,1-1.283,1.288l-.112-.111a4.351,4.351,0,1,0-6.154,6.152l.112.112a.909.909,0,0,1-.643,1.552Z" transform="translate(-1571.448 -184.719)"/></g><g transform="translate(1573.101 193.81)"><path class="b" d="M1584.34,218.976a.905.905,0,0,1-.642-.267l-7.438-7.438a.909.909,0,1,1,1.285-1.285l6.8,6.8,6.8-6.8a.909.909,0,1,1,1.286,1.285l-7.438,7.438A.906.906,0,0,1,1584.34,218.976Z" transform="translate(-1575.993 -209.719)"/></g></g></svg>