<svg xmlns="http://www.w3.org/2000/svg" width="24" height="24" viewBox="0 0 24 24"><defs><style>.a{fill:none;}.b{fill:#202022;stroke:#202022;stroke-width:0.7px;}</style></defs><rect class="a" width="24" height="24"/><g transform="translate(-1555.096 -1047.045)"><g transform="translate(1558.096 1053.887)"><path class="a" d="M1562.773,1074.544h11.792a2.178,2.178,0,0,1,2.148,2.537l-2.1,9.75a2.178,2.178,0,0,1-2.148,1.819h-7.587a2.178,2.178,0,0,1-2.148-1.819l-2.1-9.75A2.178,2.178,0,0,1,1562.773,1074.544Z" transform="translate(-1560.069 -1074.018)"/><path class="b" d="M1570.49,1087.2H1562.9a2.7,2.7,0,0,1-2.665-2.245l-2.1-9.739c0-.008,0-.016,0-.024a2.7,2.7,0,0,1,2.667-3.15h11.792a2.7,2.7,0,0,1,2.667,3.15c0,.008,0,.016,0,.024l-2.1,9.739A2.7,2.7,0,0,1,1570.49,1087.2Zm-11.32-12.193,2.1,9.737c0,.008,0,.016,0,.024a1.646,1.646,0,0,0,1.629,1.379h7.586a1.646,1.646,0,0,0,1.629-1.379c0-.008,0-.016,0-.024l2.1-9.737a1.651,1.651,0,0,0-1.631-1.912H1560.8a1.651,1.651,0,0,0-1.631,1.912Zm15.571.1h0Z" transform="translate(-1558.096 -1072.044)"/></g><g transform="translate(1561.552 1049.045)"><g transform="translate(0 0)"><path class="b" d="M1584.274,1057.185a.526.526,0,0,1-.526-.526v-2.469a4.092,4.092,0,0,0-8.185,0v2.469a.526.526,0,1,1-1.053,0v-2.469a5.145,5.145,0,0,1,10.29,0v2.469A.526.526,0,0,1,1584.274,1057.185Z" transform="translate(-1574.51 -1049.045)"/></g></g></g></svg>