<svg xmlns="http://www.w3.org/2000/svg" width="24" height="24" viewBox="0 0 24 24"><defs><style>.a{fill:none;}.b{fill:#202022;}</style></defs><rect class="a" width="24" height="24"/><g transform="translate(-570 -1830)"><g transform="translate(572.001 1837.704)"><path class="b" d="M590.653,1839.559H572.509a.928.928,0,0,1,0-1.855h18.145a.928.928,0,0,1,0,1.855Z" transform="translate(-571.581 -1841.407)"/><path class="b" d="M590.653,1839.559H572.509a.928.928,0,0,1,0-1.855h18.145a.928.928,0,0,1,0,1.855Z" transform="translate(-571.581 -1827.407)"/></g><g transform="translate(572.001 1844.729)"><path class="b" d="M606.873,1858.5H598.3a.928.928,0,1,1,0-1.855h8.578a.928.928,0,0,1,0,1.855Z" transform="translate(-597.368 -1860.37)"/></g></g></svg>