<svg xmlns="http://www.w3.org/2000/svg" width="24" height="24" viewBox="0 0 24 24"><defs><style>.a{fill:none;}.b{fill:#202022;}</style></defs><rect class="a" width="24" height="24"/><g transform="translate(-1769.449 -180.447)"><g transform="translate(1771.449 182.447)"><path class="b" d="M1780.412,200.369a8.961,8.961,0,1,1,6.338-15.3h0a8.959,8.959,0,0,1-6.338,15.3Zm0-16.1a7.145,7.145,0,1,0,5.052,2.093h0A7.1,7.1,0,0,0,1780.412,184.265Z" transform="translate(-1771.449 -182.447)"/></g><g transform="translate(1785.198 196.196)"><path class="b" d="M1814.6,226.509a.906.906,0,0,1-.643-.266l-4.433-4.433a.909.909,0,0,1,1.286-1.285l4.432,4.433a.909.909,0,0,1-.643,1.552Z" transform="translate(-1809.26 -220.258)"/></g></g></svg>