<svg xmlns="http://www.w3.org/2000/svg" width="22.923" height="22.923" viewBox="0 0 22.923 22.923"><defs><style>.a{fill:#d33730;}</style></defs><path class="a" d="M21.286,11.256H13.918V3.887A1.638,1.638,0,0,0,12.28,2.25H10.643A1.638,1.638,0,0,0,9.006,3.887v7.368H1.637A1.638,1.638,0,0,0,0,12.893V14.53a1.638,1.638,0,0,0,1.637,1.637H9.006v7.368a1.638,1.638,0,0,0,1.637,1.637H12.28a1.638,1.638,0,0,0,1.637-1.637V16.168h7.368a1.638,1.638,0,0,0,1.637-1.637V12.893A1.638,1.638,0,0,0,21.286,11.256Z" transform="translate(0 -2.25)"/></svg>