<svg xmlns="http://www.w3.org/2000/svg" width="24" height="24" viewBox="0 0 24 24"><defs><style>.a{fill:none;}.b{fill:#f63636;}</style></defs><rect class="a" width="24" height="24"/><g transform="translate(-1569.447 -181.719)"><path class="b" d="M1604.8,195.628a.9.9,0,0,1-.642-.265c-.356-.354-7.795-8.37-7.439-8.725l.111-.111a6.169,6.169,0,1,1,8.724,8.723l-.111.111A.9.9,0,0,1,1604.8,195.628Z" transform="translate(-15.91)"/><path class="b" d="M1574.01,195.628a.905.905,0,0,1-.643-.267l-.112-.112a6.169,6.169,0,1,1,8.724-8.723C1582.446,186.991,1574.242,195.628,1574.01,195.628Z"/><path class="b" d="M1584.34,218.976a.905.905,0,0,1-.642-.267l-7.438-7.438c-.355-.355,7.726-8.222,8.081-8.577s7.726,6.937,8.081,7.292a.908.908,0,0,1,0,1.285l-7.438,7.438A.906.906,0,0,1,1584.34,218.976Z" transform="translate(-2.893 -15.91)"/></g></svg>