<svg xmlns="http://www.w3.org/2000/svg" width="24" height="24" viewBox="0 0 24 24"><defs><style>.a{fill:none;}.b{fill:#202022;stroke:#202022;stroke-width:0.6px;}</style></defs><path class="a" d="M0,0H24V24H0Z"/><g transform="translate(-754.65 -1047.045)"><g transform="translate(757.65 1049.045)"><path class="b" d="M766.345,1069.045a.523.523,0,0,1-.32-.109c-.342-.262-8.374-6.48-8.374-11.2a8.695,8.695,0,1,1,17.389,0c0,4.717-8.032,10.934-8.374,11.2A.523.523,0,0,1,766.345,1069.045Zm0-18.947a7.65,7.65,0,0,0-7.642,7.642c0,3.714,6.154,8.906,7.642,10.107,1.488-1.2,7.642-6.4,7.642-10.107A7.65,7.65,0,0,0,766.345,1050.1Z" transform="translate(-757.65 -1049.045)"/></g><g transform="translate(762.402 1053.888)"><path class="b" d="M784.164,1079.933a3.942,3.942,0,1,1,3.943-3.943A3.947,3.947,0,0,1,784.164,1079.933Zm0-6.832a2.89,2.89,0,1,0,2.89,2.89A2.893,2.893,0,0,0,784.164,1073.1Z" transform="translate(-780.222 -1072.048)"/></g></g></svg>