<?xml version="1.0" standalone="no"?>
<!DOCTYPE svg PUBLIC "-//W3C//DTD SVG 20010904//EN"
 "http://www.w3.org/TR/2001/REC-SVG-20010904/DTD/svg10.dtd">
<svg version="1.0" xmlns="http://www.w3.org/2000/svg"
 width="24" height="24" viewBox="0 0 24 24"
 preserveAspectRatio="xMidYMid meet">
<metadata>
Created by potrace 1.16, written by Peter Selinger 2001-2019
</metadata>
<g transform="translate(0.000000,195.000000) scale(0.100000,-0.100000)"
fill="#000000" stroke="none">
<path d="M762 1890 c-81 -49 -96 -198 -27 -255 l25 -21 -22 -44 c-19 -36 -42
-57 -116 -106 -114 -75 -135 -95 -179 -162 -68 -105 -73 -149 -73 -654 0 -435
1 -450 21 -490 24 -48 60 -83 111 -109 35 -18 65 -19 490 -19 l453 0 52 30
c39 22 61 44 83 83 l30 52 0 176 c0 154 -2 178 -16 183 -37 14 -44 -10 -44
-163 -1 -196 -18 -242 -105 -282 -37 -17 -73 -19 -455 -19 -382 0 -418 2 -455
19 -49 22 -73 48 -91 98 -16 47 -20 756 -4 868 24 168 64 233 199 320 109 71
166 129 175 181 l7 34 169 0 169 0 7 -35 c8 -47 72 -116 147 -161 95 -57 140
-97 169 -151 51 -93 60 -149 67 -413 l6 -245 25 0 25 0 3 245 c2 216 0 253
-18 323 -33 133 -91 201 -260 310 -48 31 -71 54 -88 87 l-22 44 24 21 c34 28
46 57 46 107 -1 59 -32 123 -72 148 -30 18 -50 20 -228 20 -178 0 -198 -2
-228 -20z m423 -63 c20 -17 28 -35 32 -70 9 -78 11 -77 -227 -77 -238 0 -236
-1 -227 77 4 35 12 53 32 70 25 22 34 23 195 23 161 0 170 -1 195 -23z"/>
<path d="M870 1351 c-90 -30 -110 -42 -110 -67 0 -33 30 -37 86 -12 40 19 66
23 144 23 84 0 103 -3 157 -29 66 -30 147 -105 178 -166 19 -37 44 -131 45
-167 0 -20 -5 -23 -39 -23 l-38 0 -7 48 c-13 100 -74 184 -169 234 -60 33
-194 33 -254 0 -95 -50 -156 -134 -169 -234 l-7 -48 -38 0 c-46 0 -48 8 -23
103 20 77 36 108 81 158 29 32 35 44 26 57 -5 10 -19 18 -31 20 -24 4 -87 -74
-124 -153 -23 -49 -23 -57 -26 -417 -3 -331 -1 -370 14 -393 35 -54 44 -55
426 -55 332 0 355 1 385 20 17 10 37 28 43 40 8 14 10 132 8 388 l-3 367 -33
68 c-96 197 -327 302 -522 238z m237 -231 c61 -35 98 -91 108 -162 l7 -48
-232 0 -232 0 7 47 c18 119 103 192 225 192 54 1 74 -4 117 -29z m263 -395 l0
-115 -380 0 -380 0 0 115 0 115 380 0 380 0 0 -115z m-680 -255 c0 -77 1 -81
26 -90 14 -6 137 -10 274 -10 137 0 260 4 274 10 25 9 26 13 26 90 l0 80 40 0
40 0 0 -103 c0 -77 -4 -108 -16 -125 l-15 -22 -349 0 -349 0 -15 22 c-12 17
-16 48 -16 125 l0 103 40 0 40 0 0 -80z m530 25 l0 -55 -230 0 -230 0 0 55 0
55 230 0 230 0 0 -55z"/>
</g>
</svg>
