<svg xmlns="http://www.w3.org/2000/svg" width="170.733" height="16" viewBox="0 0 170.733 16"><defs><style>.a{fill:#fff;}</style></defs><g transform="translate(-1067.224 -160.754)"><g transform="translate(1067.224 160.754)"><path class="a" d="M1076.251,165.067a4.154,4.154,0,0,0-2.62-1.008c-.725,0-1.693.423-1.693,1.27,0,.887,1.068,1.229,1.754,1.451l1.008.3c2.116.624,3.748,1.693,3.748,4.151a5.159,5.159,0,0,1-1.572,4.09,6.664,6.664,0,0,1-4.312,1.431,9.379,9.379,0,0,1-5.34-1.733l1.693-3.184a5.414,5.414,0,0,0,3.506,1.572c.927,0,1.914-.463,1.914-1.531,0-1.108-1.552-1.491-2.4-1.733-2.478-.706-4.11-1.35-4.11-4.292a4.925,4.925,0,0,1,5.239-5.1,10.393,10.393,0,0,1,4.756,1.25Z" transform="translate(-1067.224 -160.754)"/><path class="a" d="M1106.489,174.278l-1.048,2.639h-4.191l5.844-15.194h4.313l5.723,15.194h-4.212l-.988-2.639Zm2.761-7.859h-.04l-1.632,4.836h3.285Z" transform="translate(-1087.106 -161.32)"/><path class="a" d="M1152.168,173.572h4.735v3.344h-8.685V161.723h3.95Z" transform="translate(-1114.551 -161.32)"/><path class="a" d="M1181.976,173.572h4.735v3.344h-8.685V161.723h3.95Z" transform="translate(-1131.969 -161.32)"/><path class="a" d="M1199.352,161.723h4.736l2.842,4.131,2.841-4.131h4.736l-5.6,7.9v7.294h-3.95v-7.294Z" transform="translate(-1144.43 -161.32)"/><path class="a" d="M1255.58,176.917V161.723h5.642c2.7,0,4.514,1.048,4.514,3.95a3.155,3.155,0,0,1-1.672,3.1v.04c2.176.283,3.1,1.754,3.1,3.869,0,3.184-2.72,4.231-5.5,4.231Zm3.95-9.228h.443c1.048,0,2.136-.182,2.136-1.471,0-1.39-1.229-1.471-2.3-1.471h-.283Zm0,6.206h.5c1.168,0,3.143.061,3.143-1.612,0-1.834-1.955-1.653-3.244-1.653h-.4Z" transform="translate(-1177.286 -161.32)"/><path class="a" d="M1298.161,165.068v2.539h4.453v3.345h-4.453v2.62h4.695v3.344h-8.645V161.723h8.645v3.345Z" transform="translate(-1199.859 -161.32)"/><path class="a" d="M1328.628,174.278l-1.047,2.639h-4.191l5.843-15.194h4.313l5.723,15.194h-4.212l-.987-2.639Zm2.762-7.859h-.041l-1.632,4.836H1333Z" transform="translate(-1216.909 -161.32)"/><path class="a" d="M1383.421,161.723v8.545c0,1.954-.08,3.889-1.592,5.36a8.343,8.343,0,0,1-10.075,0c-1.512-1.471-1.592-3.406-1.592-5.36v-8.545h3.95v8c0,1.975.141,4.131,2.68,4.131s2.68-2.156,2.68-4.131v-8Z" transform="translate(-1244.239 -161.32)"/><path class="a" d="M1418.285,176.917h-3.95V165.068h-3.265v-3.345h10.479v3.345h-3.264Z" transform="translate(-1268.143 -161.32)"/><path class="a" d="M1441.51,161.723h4.735l2.841,4.131,2.841-4.131h4.735l-5.6,7.9v7.294h-3.95v-7.294Z" transform="translate(-1285.93 -161.32)"/></g></g></svg>