<svg xmlns="http://www.w3.org/2000/svg" width="277.425" height="26" viewBox="0 0 277.425 26"><defs><style>.a{fill:#202022;}</style></defs><g transform="translate(-190.631 -595.797)"><path class="a" d="M205.3,602.8a6.752,6.752,0,0,0-4.257-1.637c-1.178,0-2.75.688-2.75,2.063,0,1.44,1.736,2,2.849,2.357l1.637.491c3.438,1.014,6.09,2.75,6.09,6.745,0,2.455-.589,4.977-2.554,6.646a10.831,10.831,0,0,1-7.006,2.326,15.24,15.24,0,0,1-8.678-2.817l2.75-5.174a8.8,8.8,0,0,0,5.7,2.554c1.506,0,3.11-.752,3.11-2.488,0-1.8-2.521-2.423-3.9-2.815-4.027-1.147-6.679-2.194-6.679-6.974,0-5.01,3.569-8.285,8.513-8.285a16.888,16.888,0,0,1,7.728,2.03Z" transform="translate(0 0)"/><path class="a" d="M233.171,617.167l-1.7,4.288h-6.81l9.5-24.687h7.008l9.3,24.687h-6.843l-1.6-4.288Zm4.485-12.77h-.065l-2.652,7.858h5.337Z" transform="translate(-11.044 -0.314)"/><path class="a" d="M278.043,616.021h7.695v5.435H271.625V596.768h6.418Z" transform="translate(-26.287 -0.314)"/><path class="a" d="M307.851,616.021h7.695v5.435H301.434V596.768h6.417Z" transform="translate(-35.961 -0.314)"/><path class="a" d="M322.76,596.768h7.695l4.617,6.712,4.617-6.712h7.7l-9.1,12.835v11.853h-6.418V609.6Z" transform="translate(-42.885 -0.314)"/><path class="a" d="M378.984,621.455V596.768h9.169c4.388,0,7.335,1.7,7.335,6.417,0,2.227-.72,4.027-2.718,5.043v.065c3.536.459,5.042,2.85,5.042,6.288,0,5.174-4.42,6.875-8.939,6.875Zm6.418-15h.721c1.7,0,3.471-.3,3.471-2.39,0-2.26-2-2.39-3.733-2.39H385.4Zm0,10.084h.819c1.9,0,5.108.1,5.108-2.619,0-2.98-3.176-2.686-5.272-2.686H385.4Z" transform="translate(-61.134 -0.314)"/><path class="a" d="M424.032,602.2v4.125h7.237v5.435h-7.237v4.257h7.63v5.435H417.615V596.768h14.047V602.2Z" transform="translate(-73.672 -0.314)"/><path class="a" d="M455.305,617.167l-1.7,4.288h-6.81l9.5-24.687H463.3l9.3,24.687h-6.844l-1.6-4.288Zm4.487-12.77h-.066l-2.652,7.858h5.337Z" transform="translate(-83.14 -0.314)"/><path class="a" d="M515.112,596.768v13.883c0,3.175-.132,6.319-2.587,8.71-2.063,2.03-5.3,2.75-8.186,2.75s-6.123-.72-8.186-2.75c-2.456-2.39-2.587-5.535-2.587-8.71V596.768h6.418v13c0,3.21.229,6.713,4.355,6.713s4.355-3.5,4.355-6.713v-13Z" transform="translate(-98.322 -0.314)"/><path class="a" d="M546.2,621.455h-6.418V602.2h-5.3v-5.435H551.5V602.2h-5.3Z" transform="translate(-111.598 -0.314)"/><path class="a" d="M564.914,596.768h7.695l4.617,6.712,4.617-6.712h7.694l-9.1,12.835v11.853h-6.417V609.6Z" transform="translate(-121.48 -0.314)"/></g></svg>