<svg xmlns="http://www.w3.org/2000/svg" xmlns:xlink="http://www.w3.org/1999/xlink" width="356.138" height="20" viewBox="0 0 356.138 20"><defs><style>.a,.b,.u{fill:none;}.b{clip-rule:evenodd;}.c{clip-path:url(#a);}.d{fill:#202022;}.e{clip-path:url(#b);}.f,.v{fill:#fff;}.g{clip-path:url(#c);}.h{clip-path:url(#d);}.i{clip-path:url(#e);}.j{clip-path:url(#f);}.k{clip-path:url(#g);}.l{fill:#ededed;}.m{clip-path:url(#h);}.n{clip-path:url(#i);}.o{clip-path:url(#j);}.p{clip-path:url(#k);}.q{clip-path:url(#l);}.r{clip-path:url(#m);}.s{clip-path:url(#n);}.t{clip-path:url(#o);}.u,.v{fill-rule:evenodd;}.w{clip-path:url(#p);}.x{clip-path:url(#q);}.y{clip-path:url(#r);}.z{clip-path:url(#s);}.aa{clip-path:url(#t);}</style><clipPath id="a"><path class="a" d="M23.956-17H1.649A1.651,1.651,0,0,0,0-15.351V-5.59A1.651,1.651,0,0,0,1.649-3.941h22.3A1.651,1.651,0,0,0,25.6-5.59v-9.761A1.64,1.64,0,0,0,23.956-17Zm0,.293a1.357,1.357,0,0,1,.645.161,1.352,1.352,0,0,1,.476.432,1.346,1.346,0,0,0-.476-.432,1.357,1.357,0,0,0-.645-.161ZM24.6-4.388a1.357,1.357,0,0,1-.645.161h0a1.357,1.357,0,0,0,.645-.161,1.352,1.352,0,0,0,.476-.432A1.424,1.424,0,0,1,24.6-4.388Z" transform="translate(0 17)"/></clipPath><clipPath id="b"><path class="a" d="M32.338-3.532a.8.8,0,0,1-.63.213.918.918,0,0,1-.879-1.026.951.951,0,0,1,.931-1.019.949.949,0,0,1,.594.191.172.172,0,0,0,.1.037.146.146,0,0,0,.066-.015l.044-.044.183-.249a1.3,1.3,0,0,0-.975-.374,1.45,1.45,0,0,0-1.48,1.48,1.393,1.393,0,0,0,1.392,1.48A1.287,1.287,0,0,0,32.726-3.3l-.205-.22A.113.113,0,0,0,32.338-3.532Zm3.605-.813a1.445,1.445,0,0,0-1.466-1.48,1.445,1.445,0,0,0-1.466,1.48,1.445,1.445,0,0,0,1.466,1.48A1.41,1.41,0,0,0,35.943-4.345ZM34.485-3.327c-.916,0-.916-1.019-.916-1.019s0-1.019.916-1.019.909,1.019.909,1.019S35.394-3.327,34.485-3.327Zm3.84-2.492v2.067L36.786-5.73a.124.124,0,0,0-.044-.044.128.128,0,0,0-.037-.029c-.015-.007-.029-.007-.044-.015h-.344v2.953H36.8V-4.924l1.532,1.971a.244.244,0,0,0,.081.073.245.245,0,0,0,.11.022h.286V-5.811l-.484-.007Zm2.895.432v-.44H39.351v2.953H41.22v-.44H39.908v-.835h1.033v-.425H39.908v-.821l1.312.007ZM43.132-4.25c-.037-.044-.073-.081-.1-.117a.508.508,0,0,0-.125-.073.2.2,0,0,0,.088-.066.564.564,0,0,0,.088-.1l1-1.231H43.6a.262.262,0,0,0-.139.029.29.29,0,0,0-.11.088l-.813,1.033a.2.2,0,0,1-.088.066.33.33,0,0,1-.132.022h-.132V-5.833h-.55V-2.88h.55v-1.3h.176a.385.385,0,0,1,.147.022.3.3,0,0,1,.1.073L43.44-2.99a.281.281,0,0,0,.081.081.258.258,0,0,0,.147.029h.484Zm1.341-1.568-.366.454h.938v2.506h.55V-5.364h1.092v-.454Zm3.371,0H47.28L46.115-2.865h.425a.2.2,0,0,0,.117-.037.253.253,0,0,0,.066-.088l.22-.6h1.238l.22.6a.2.2,0,0,0,.066.088.2.2,0,0,0,.117.037h.425ZM47.1-3.979l.469-1.334.476,1.334Z" transform="translate(-30.286 5.833)"/></clipPath><clipPath id="c"><path class="a" d="M48.08-4.4l.242.33-.608.821L46.849-4.4l.857-1.143.616.821Z" transform="translate(-46.849 5.543)"/></clipPath><clipPath id="d"><path class="a" d="M48.532-4.268l-1.48-1.971h1.231l1.48,1.971L48.283-2.3H47.052Z" transform="translate(-47.052 6.239)"/></clipPath><clipPath id="e"><path class="a" d="M28.986-3.917l-.059.469a.263.263,0,0,0-.088-.059.245.245,0,0,0-.11-.022.332.332,0,0,0-.117.022.307.307,0,0,0-.1.066.543.543,0,0,0-.088.1.407.407,0,0,0-.066.125.774.774,0,0,0-.044.139.992.992,0,0,0-.015.147.755.755,0,0,0,.015.147.335.335,0,0,0,.051.1.166.166,0,0,0,.081.059.234.234,0,0,0,.1.022.294.294,0,0,0,.169-.059.592.592,0,0,0,.147-.154l-.007.132a.062.062,0,0,0,.015.044c.007.015.029.015.059.015h.117l.161-1.3h-.22Zm-.1.828a.635.635,0,0,1-.051.125c-.022.037-.044.073-.066.1a.208.208,0,0,1-.073.066.141.141,0,0,1-.073.022.1.1,0,0,1-.088-.044.232.232,0,0,1-.029-.139.993.993,0,0,1,.015-.147.705.705,0,0,1,.051-.132.347.347,0,0,1,.081-.1.175.175,0,0,1,.1-.037.261.261,0,0,1,.073.015.107.107,0,0,1,.066.044Zm1.026.227c-.007,0-.015-.007-.022-.007s-.022,0-.029.007a.056.056,0,0,1-.029.015.16.16,0,0,1-.037.022c-.015.007-.022.015-.037.022a.106.106,0,0,1-.051.015.2.2,0,0,1-.066.007c-.117,0-.176-.073-.176-.213v-.015a1.9,1.9,0,0,0,.271-.044,1.012,1.012,0,0,0,.169-.066.249.249,0,0,0,.088-.088.268.268,0,0,0,.022-.11A.378.378,0,0,0,30-3.4a.445.445,0,0,0-.051-.073.253.253,0,0,0-.088-.051.316.316,0,0,0-.125-.022.427.427,0,0,0-.139.022.585.585,0,0,0-.117.059,1.129,1.129,0,0,0-.1.088.954.954,0,0,0-.073.11.466.466,0,0,0-.044.132.812.812,0,0,0-.015.139.487.487,0,0,0,.022.154.319.319,0,0,0,.073.117.225.225,0,0,0,.11.073.434.434,0,0,0,.147.029.267.267,0,0,0,.11-.015.363.363,0,0,0,.1-.029.307.307,0,0,0,.088-.059.876.876,0,0,0,.088-.081l-.059-.066C29.924-2.854,29.917-2.861,29.91-2.861Zm-.4-.366a.772.772,0,0,1,.051-.081.4.4,0,0,1,.066-.051.145.145,0,0,1,.081-.015c.015,0,.037,0,.044.007s.022.015.029.015.015.015.015.022.007.015.007.029a.07.07,0,0,1-.015.051.106.106,0,0,1-.051.044.275.275,0,0,1-.1.037.87.87,0,0,1-.176.029A.547.547,0,0,0,29.507-3.228ZM34.351-15H30.6L28.29-6.658h2.792l.623-2.264h.909c4.023,0,4.646-3.114,4.646-3.114S38.308-15,34.351-15Zm.11,3.151a1.355,1.355,0,0,1-1.451.945h-.747l.513-1.861h.762C34.805-12.777,34.461-11.853,34.461-11.853ZM43.159-15H40.411l-5.8,8.347h2.961l.733-1.114h2.9l.132,1.114h3ZM39.546-9.735l1.312-2.015.205,2.015ZM50.238-15l-2.2,2.741L47.366-15H44.244L45.9-9.618l-.813,2.953h2.785l.828-2.99L53.323-15Zm4.58.66a.2.2,0,0,0,.169-.2.206.206,0,0,0-.227-.205h-.271v.667h.1v-.264h.11l.176.264H55Zm-.227-.088v-.235h.169a.114.114,0,0,1,.125.117c0,.066-.044.11-.125.11h-.169Zm.227.088a.2.2,0,0,0,.169-.2.206.206,0,0,0-.227-.205h-.271v.667h.1v-.264h.11l.176.264H55Zm-.227-.088v-.235h.169a.114.114,0,0,1,.125.117c0,.066-.044.11-.125.11h-.169ZM54.716-15a.583.583,0,0,0-.586.586.588.588,0,0,0,.586.586.583.583,0,0,0,.586-.586A.583.583,0,0,0,54.716-15Zm0,1.077a.491.491,0,0,1-.491-.491.491.491,0,0,1,.491-.491.486.486,0,0,1,.491.491A.491.491,0,0,1,54.716-13.927Zm.271-.616a.206.206,0,0,0-.227-.205h-.271v.667h.1v-.264h.11l.176.264H55l-.176-.271A.182.182,0,0,0,54.987-14.543Zm-.4.11v-.235h.169a.114.114,0,0,1,.125.117c0,.066-.044.11-.125.11h-.169Zm.227.088a.2.2,0,0,0,.169-.2.206.206,0,0,0-.227-.205h-.271v.667h.1v-.264h.11l.176.264H55Zm-.227-.088v-.235h.169a.114.114,0,0,1,.125.117c0,.066-.044.11-.125.11h-.169Zm.227.088a.2.2,0,0,0,.169-.2.206.206,0,0,0-.227-.205h-.271v.667h.1v-.264h.11l.176.264H55Zm-.227-.088v-.235h.169a.114.114,0,0,1,.125.117c0,.066-.044.11-.125.11h-.169Z" transform="translate(-28.29 15.004)"/></clipPath><clipPath id="f"><path class="a" d="M24.539-4.244h.595V-16.754h-.595Z" transform="translate(-24.539 16.754)"/></clipPath><clipPath id="g"><path class="a" d="M23.881-16.747H1.64A1.39,1.39,0,0,0,.248-15.362H25.273A1.4,1.4,0,0,0,23.881-16.747ZM.24-5.66A1.39,1.39,0,0,0,1.633-4.275H23.874A1.39,1.39,0,0,0,25.266-5.66Z" transform="translate(-0.24 16.747)"/></clipPath><clipPath id="h"><path class="a" d="M4.423-12.916a2.086,2.086,0,0,0-2.089,2.081A2.081,2.081,0,0,0,4.423-8.753,2.08,2.08,0,0,0,6.5-10.835,2.08,2.08,0,0,0,4.423-12.916Zm0,0a2.086,2.086,0,0,0-2.089,2.081A2.081,2.081,0,0,0,4.423-8.753,2.08,2.08,0,0,0,6.5-10.835,2.08,2.08,0,0,0,4.423-12.916ZM20.516-15a3.345,3.345,0,0,0-2.631,1.334L15.68-10.8l1.8,2.294a.7.7,0,0,1-.117.975.7.7,0,0,1-.975-.117L14.8-9.669,13.606-8.145,13.6-8.13l-.374.484a.676.676,0,0,1-.366.242.708.708,0,0,1-.608-.125.7.7,0,0,1-.264-.623.65.65,0,0,1,.147-.352l.674-.857L13.928-10.8l-.747-.967.85-1.143.769.989,1.883-2.389c.051-.066.425-.608.813-.7H.246v8.318H5.171A3.428,3.428,0,0,0,7.619-8.028L9.824-10.9l-1.8-2.294a.687.687,0,0,1,.117-.967.7.7,0,0,1,.975.117l1.59,2.023L11.9-13.546l.015-.015.374-.476a.676.676,0,0,1,.366-.242.681.681,0,0,1,.608.125.69.69,0,0,1,.256.623.65.65,0,0,1-.147.352l-.667.857-1.129,1.436.762.975-.865,1.151-.777-1L8.813-7.383c-.051.066-.44.645-.85.7H25.272V-15ZM7.9-10.842A3.465,3.465,0,0,1,4.423-7.376,3.47,3.47,0,0,1,.95-10.842,3.459,3.459,0,0,1,4.423-14.3,3.468,3.468,0,0,1,7.9-10.842ZM21.1-7.368a3.47,3.47,0,0,1-3.474-3.466A3.47,3.47,0,0,1,21.1-14.3a3.47,3.47,0,0,1,3.474,3.466A3.47,3.47,0,0,1,21.1-7.368Zm0-5.547a2.086,2.086,0,0,0-2.089,2.081A2.086,2.086,0,0,0,21.1-8.753a2.086,2.086,0,0,0,2.089-2.081A2.091,2.091,0,0,0,21.1-12.916Zm-16.672,0a2.086,2.086,0,0,0-2.089,2.081A2.081,2.081,0,0,0,4.423-8.753,2.08,2.08,0,0,0,6.5-10.835,2.08,2.08,0,0,0,4.423-12.916Zm0,0a2.086,2.086,0,0,0-2.089,2.081A2.081,2.081,0,0,0,4.423-8.753,2.08,2.08,0,0,0,6.5-10.835,2.08,2.08,0,0,0,4.423-12.916Zm16.672,0a2.086,2.086,0,0,0-2.089,2.081A2.086,2.086,0,0,0,21.1-8.753a2.086,2.086,0,0,0,2.089-2.081A2.091,2.091,0,0,0,21.1-12.916Zm0,0a2.086,2.086,0,0,0-2.089,2.081A2.086,2.086,0,0,0,21.1-8.753a2.086,2.086,0,0,0,2.089-2.081A2.091,2.091,0,0,0,21.1-12.916Zm-16.672,0a2.086,2.086,0,0,0-2.089,2.081A2.081,2.081,0,0,0,4.423-8.753,2.08,2.08,0,0,0,6.5-10.835,2.08,2.08,0,0,0,4.423-12.916Z" transform="translate(-0.246 15.004)"/></clipPath><clipPath id="i"><path class="b" d="M126.5-87.148l.377-2.175a7.627,7.627,0,0,0-2.372-.441c-1.308,0-4.415.572-4.415,3.351,0,2.617,3.647,2.65,3.647,4.024s-3.271,1.128-4.351.262L119-79.854a7.391,7.391,0,0,0,2.978.573c1.8,0,4.513-.932,4.513-3.468,0-2.634-3.68-2.878-3.68-4.022s2.569-1,3.7-.377Zm3.852,4.109,1.386-3.79.779,3.79Zm2.9,3.582h2.421l-2.111-10.128h-2.119a1.212,1.212,0,0,0-1.218.756L126.3-79.457h2.749l.549-1.5h3.352Zm-20.74-10.128L110-82.619l-.3-1.5-.886-4.555a1.129,1.129,0,0,0-1.251-.912h-4.157l-.048.172a9.9,9.9,0,0,1,2.759,1.157l2.29,8.8h2.748l4.194-10.128Zm4.855,10.128h-2.637l1.647-10.128h2.639Z" transform="translate(-103.363 89.764)"/></clipPath><clipPath id="j"><path class="b" d="M109.184-84.042,108.3-88.6a1.127,1.127,0,0,0-1.249-.912H102.89l-.048.171a10.207,10.207,0,0,1,3.913,1.964,7.89,7.89,0,0,1,2.429,3.33" transform="translate(-102.842 89.507)"/></clipPath><clipPath id="k"><path class="b" d="M211.37-70.9v-1.322a.783.783,0,0,0-.826-.836.818.818,0,0,0-.74.375.774.774,0,0,0-.7-.375.7.7,0,0,0-.618.314v-.261h-.459V-70.9h.463v-1.168a.492.492,0,0,1,.515-.558c.3,0,.457.2.457.555v1.17h.464v-1.167a.5.5,0,0,1,.515-.558c.312,0,.459.2.459.555v1.17Zm6.844-2.106h-.748v-.637H217v.637h-.428v.42H217v.96c0,.488.188.778.73.778a1.078,1.078,0,0,0,.573-.162l-.132-.392a.843.843,0,0,1-.405.119c-.228,0-.3-.141-.3-.352v-.95h.748Zm3.906-.052a.626.626,0,0,0-.556.309v-.256h-.453V-70.9h.458v-1.18c0-.35.151-.543.449-.543a.767.767,0,0,1,.286.053l.141-.431a.978.978,0,0,0-.327-.058Zm-5.906.22a1.576,1.576,0,0,0-.857-.22c-.534,0-.878.256-.878.675,0,.342.256.554.727.62l.216.032c.251.035.369.1.369.22,0,.164-.166.255-.48.255a1.128,1.128,0,0,1-.7-.219l-.216.355a1.515,1.515,0,0,0,.91.274c.608,0,.962-.285.962-.687,0-.37-.278-.563-.735-.63l-.216-.032c-.2-.024-.358-.065-.358-.206s.151-.247.4-.247a1.365,1.365,0,0,1,.655.18l.2-.369Zm12.268-.22a.62.62,0,0,0-.553.309v-.256h-.454V-70.9h.458v-1.18c0-.35.149-.543.449-.543a.765.765,0,0,1,.285.053l.141-.431a.965.965,0,0,0-.325-.058Zm-5.9,1.105a1.063,1.063,0,0,0,1.122,1.105,1.091,1.091,0,0,0,.756-.251l-.219-.37a.922.922,0,0,1-.552.19.628.628,0,0,1-.633-.674.628.628,0,0,1,.633-.673.921.921,0,0,1,.552.189l.219-.37a1.093,1.093,0,0,0-.756-.251,1.063,1.063,0,0,0-1.122,1.105Zm4.288,0V-73.01h-.457v.256a.8.8,0,0,0-.664-.307,1.054,1.054,0,0,0-1.053,1.1,1.054,1.054,0,0,0,1.053,1.105.8.8,0,0,0,.664-.308v.255h.457v-1.053Zm-1.7,0a.631.631,0,0,1,.638-.673.63.63,0,0,1,.633.673.631.631,0,0,1-.633.674.633.633,0,0,1-.64-.674Zm-5.526-1.105a1.028,1.028,0,0,0-1.048,1.105,1.037,1.037,0,0,0,1.079,1.105,1.281,1.281,0,0,0,.861-.294l-.225-.34a1,1,0,0,1-.612.219.585.585,0,0,1-.63-.513h1.564c.005-.058.01-.115.01-.177a1.01,1.01,0,0,0-1-1.105Zm-.008.41a.52.52,0,0,1,.53.512h-1.09a.541.541,0,0,1,.56-.512Zm11.487.7v-1.9h-.456v1.1a.807.807,0,0,0-.667-.307,1.054,1.054,0,0,0-1.052,1.1A1.054,1.054,0,0,0,230-70.851a.8.8,0,0,0,.667-.308v.255h.456Zm-1.7,0a.631.631,0,0,1,.639-.674.631.631,0,0,1,.633.674.631.631,0,0,1-.633.674.631.631,0,0,1-.639-.674Zm-15.465,0V-73.01h-.457v.256a.8.8,0,0,0-.665-.307,1.055,1.055,0,0,0-1.054,1.1,1.055,1.055,0,0,0,1.054,1.105.8.8,0,0,0,.665-.308v.255h.457Zm-1.7,0a.631.631,0,0,1,.638-.674.631.631,0,0,1,.634.674.631.631,0,0,1-.634.674.631.631,0,0,1-.638-.674Zm19.634.749a.218.218,0,0,1,.152.062.208.208,0,0,1,.046.067.219.219,0,0,1,0,.162.187.187,0,0,1-.046.066.262.262,0,0,1-.067.047.231.231,0,0,1-.085.017.209.209,0,0,1-.082-.017.207.207,0,0,1-.068-.047.181.181,0,0,1-.046-.067.2.2,0,0,1,0-.162.2.2,0,0,1,.046-.067.219.219,0,0,1,.068-.046.268.268,0,0,1,.084-.016Zm0,.372a.16.16,0,0,0,.065-.014.167.167,0,0,0,.051-.035.165.165,0,0,0,.034-.051.159.159,0,0,0,0-.126.192.192,0,0,0-.034-.052.165.165,0,0,0-.051-.034.159.159,0,0,0-.065-.013.172.172,0,0,0-.063.013.153.153,0,0,0-.053.034.169.169,0,0,0-.034.179.147.147,0,0,0,.034.052.153.153,0,0,0,.053.034.172.172,0,0,0,.063.013Zm.014-.262a.1.1,0,0,1,.056.017.05.05,0,0,1,.022.046.049.049,0,0,1-.017.04.079.079,0,0,1-.046.018l.064.073h-.05l-.057-.072h-.022v.072h-.039V-71.1h.09Zm-.05.037v.051h.048a.039.039,0,0,0,.025-.007.017.017,0,0,0,.01-.019.021.021,0,0,0-.01-.021.063.063,0,0,0-.025,0h-.048Z" transform="translate(-208.032 73.855)"/></clipPath><clipPath id="l"><path class="b" d="M237.1-78.709v-.255h.1v-.052h-.261v.052h.1v.255h.058Zm.507,0v-.307h-.081l-.092.211-.093-.211h-.081v.307h.059v-.232l.086.2h.058l.087-.2v.232Z" transform="translate(-236.936 79.016)"/></clipPath><clipPath id="m"><path class="a" d="M218.355-79.97h6.934V-92.435h-6.934Z" transform="translate(-218.355 92.435)"/></clipPath><clipPath id="n"><path class="b" d="M216.8-86.572a7.915,7.915,0,0,1,3.028-6.234,7.885,7.885,0,0,0-4.9-1.694A7.925,7.925,0,0,0,207-86.572a7.925,7.925,0,0,0,7.926,7.925,7.9,7.9,0,0,0,4.9-1.694,7.916,7.916,0,0,1-3.028-6.232" transform="translate(-207 94.5)"/></clipPath><clipPath id="o"><path class="b" d="M235.308-86.572a7.925,7.925,0,0,1-7.925,7.925,7.9,7.9,0,0,1-4.9-1.694,7.917,7.917,0,0,0,3.028-6.232,7.915,7.915,0,0,0-3.028-6.234,7.886,7.886,0,0,1,4.9-1.694,7.925,7.925,0,0,1,7.925,7.928" transform="translate(-222.484 94.5)"/></clipPath><clipPath id="p"><path class="b" d="M32.4-88.8H29.45a.409.409,0,0,0-.4.347L27.854-80.89a.245.245,0,0,0,.2.281l.037,0H29.61a.285.285,0,0,0,.283-.242l.339-2.145a.411.411,0,0,1,.4-.347h.934a3.031,3.031,0,0,0,3.359-2.8,2.268,2.268,0,0,0-.378-1.905A2.732,2.732,0,0,0,32.4-88.8m.34,2.764c-.162,1.061-.97,1.061-1.753,1.061h-.445l.311-1.979a.248.248,0,0,1,.243-.208h.2c.533,0,1.037,0,1.3.3a.988.988,0,0,1,.143.822" transform="translate(-27.851 88.805)"/></clipPath><clipPath id="q"><path class="b" d="M13.457-86.075H12.045a.249.249,0,0,0-.245.208l-.061.4-.1-.143a2.013,2.013,0,0,0-1.67-.593,3.249,3.249,0,0,0-3.155,2.843,2.659,2.659,0,0,0,.527,2.17,2.208,2.208,0,0,0,1.779.719,2.707,2.707,0,0,0,1.957-.809l-.065.393a.248.248,0,0,0,.206.281.266.266,0,0,0,.039,0h1.273a.41.41,0,0,0,.4-.346L13.7-85.79a.245.245,0,0,0-.2-.281.182.182,0,0,0-.039,0m-1.968,2.75a1.577,1.577,0,0,1-1.6,1.35,1.19,1.19,0,0,1-.948-.381,1.2,1.2,0,0,1-.222-.993,1.581,1.581,0,0,1,1.583-1.36,1.194,1.194,0,0,1,.942.384,1.217,1.217,0,0,1,.241,1M4.637-88.8H1.685a.411.411,0,0,0-.406.347L.087-80.89a.246.246,0,0,0,.2.281.259.259,0,0,0,.039,0H1.738a.412.412,0,0,0,.407-.346l.321-2.041a.408.408,0,0,1,.406-.346H3.8a3.031,3.031,0,0,0,3.358-2.806,2.265,2.265,0,0,0-.376-1.905,2.738,2.738,0,0,0-2.15-.754m.34,2.764c-.162,1.061-.97,1.061-1.753,1.061H2.779l.312-1.979a.246.246,0,0,1,.242-.208h.2c.533,0,1.037,0,1.3.3a.984.984,0,0,1,.144.822" transform="translate(-0.084 88.805)"/></clipPath><clipPath id="r"><path class="b" d="M43.358-85.246H41.945a.245.245,0,0,0-.243.208l-.061.4-.1-.143a2.009,2.009,0,0,0-1.67-.593,3.25,3.25,0,0,0-3.154,2.843,2.665,2.665,0,0,0,.527,2.17,2.208,2.208,0,0,0,1.779.719,2.714,2.714,0,0,0,1.959-.809l-.066.393a.245.245,0,0,0,.2.281.292.292,0,0,0,.04,0h1.272a.412.412,0,0,0,.406-.346l.764-4.838a.246.246,0,0,0-.206-.281.181.181,0,0,0-.038,0m-1.97,2.75a1.576,1.576,0,0,1-1.595,1.35,1.192,1.192,0,0,1-.95-.381,1.2,1.2,0,0,1-.221-.993,1.579,1.579,0,0,1,1.583-1.36,1.2,1.2,0,0,1,.943.384,1.223,1.223,0,0,1,.239,1" transform="translate(-36.675 85.378)"/></clipPath><clipPath id="s"><path class="b" d="M25.552-85.2H24.131a.408.408,0,0,0-.338.179l-1.96,2.887L21-84.91a.414.414,0,0,0-.395-.294h-1.4a.246.246,0,0,0-.246.246.261.261,0,0,0,.013.08l1.564,4.592-1.471,2.075a.245.245,0,0,0,.059.343.244.244,0,0,0,.142.045h1.42A.412.412,0,0,0,21.03-78l4.724-6.818a.246.246,0,0,0-.063-.342.244.244,0,0,0-.14-.044" transform="translate(-18.967 85.204)"/></clipPath><clipPath id="t"><path class="b" d="M47.3-88.6,46.087-80.89a.246.246,0,0,0,.206.28.259.259,0,0,0,.037,0h1.219a.411.411,0,0,0,.406-.346l1.194-7.569a.247.247,0,0,0-.2-.281.188.188,0,0,0-.039,0H47.542a.246.246,0,0,0-.243.208" transform="translate(-46.084 88.804)"/></clipPath></defs><g transform="translate(549.834 -477)"><g transform="translate(-424.387 478.899)"><g class="c"><path class="d" d="M-5-22H32.5V2.956H-5Z" transform="translate(-0.949 16.051)"/></g><g class="e" transform="translate(36.033 13.286)"><path class="f" d="M25.286-10.833H55.907V4.04H25.286Z" transform="translate(-31.235 4.884)"/></g><g class="g" transform="translate(55.739 13.63)"><path class="f" d="M41.849-10.543H55.219V3.648H41.849Z" transform="translate(-47.797 4.595)"/></g><g class="h" transform="translate(55.98 12.802)"><path class="f" d="M42.052-11.239H56.661V4.6H42.052Z" transform="translate(-48.001 5.291)"/></g><g class="i" transform="translate(33.659 2.374)"><path class="f" d="M23.29-20H62.2v24.3H23.29Z" transform="translate(-29.239 14.056)"/></g><g class="j" transform="translate(29.196 0.293)"><path class="f" d="M19.539-21.754H32.032V2.653H19.539Z" transform="translate(-25.488 15.805)"/></g><g class="k" transform="translate(0.286 0.3)"><path class="l" d="M-4.76-21.747H32.171V2.623H-4.76Z" transform="translate(-1.189 15.799)"/></g><g class="m" transform="translate(0.293 2.374)"><path class="l" d="M-4.754-20H32.17V.211H-4.754Z" transform="translate(-1.195 14.056)"/></g></g><g transform="translate(-549.834 481.745)"><g class="n" transform="translate(0.368 0)"><path class="f" d="M98.363-94.764h39.37v17.539H98.363Z" transform="translate(-101.891 91.236)"/></g><g class="o" transform="translate(0 0.181)"><path class="l" d="M97.842-94.507h13.4v12.521h-13.4Z" transform="translate(-101.37 90.979)"/></g></g><g transform="translate(-499.355 477.285)"><g class="p" transform="translate(0.832 16.644)"><path class="f" d="M203.032-78.855h32.124v11.129H203.032Z" transform="translate(-207.063 74.824)"/></g><g class="q" transform="translate(24.134 12.483)"><path class="f" d="M231.936-84.016h8.729v8.369h-8.729Z" transform="translate(-235.967 79.985)"/></g><g class="r" transform="translate(9.154 1.664)"><path class="d" d="M213.355-97.435h15v20.528h-15Z" transform="translate(-217.386 93.404)"/></g><g class="s" transform="translate(0 0)"><path class="f" d="M202-99.5h20.886v23.915H202Z" transform="translate(-206.031 95.469)"/></g><g class="t" transform="translate(12.483 0)"><path class="f" d="M217.484-99.5H238.37v23.915H217.484Z" transform="translate(-221.515 95.469)"/></g></g><g transform="translate(-458.13 477)"><path class="u" d="M0,0H20V20H0Z" transform="translate(1.05)"/><path class="v" d="M4.59,32.111H4.525c0-.031-.016-.078-.016-.094s0-.047-.049-.047h-.1v.141H4.314v-.33H4.46c.065,0,.114.016.114.078a.091.091,0,0,1-.032.078A.081.081,0,0,1,4.574,32v.063c0,.016,0,.016.016.016v.031Zm-.065-.236c0-.047-.033-.047-.049-.047H4.363v.094h.1C4.493,31.923,4.525,31.907,4.525,31.876Zm.276.063a.359.359,0,0,0-.374-.346.354.354,0,1,0,0,.707A.362.362,0,0,0,4.8,31.939Zm-.049,0a.308.308,0,0,1-.325.3.294.294,0,0,1-.309-.3.3.3,0,0,1,.309-.3A.319.319,0,0,1,4.753,31.939Zm20.036-6.347c0,.471-.309.691-.862.691H22.87v-.471h1.057a.346.346,0,0,0,.212-.047.2.2,0,0,0,.065-.141.235.235,0,0,0-.065-.157.29.29,0,0,0-.2-.047c-.5-.016-1.138.016-1.138-.676,0-.314.211-.66.781-.66h1.09v.471H23.667a.4.4,0,0,0-.211.031.222.222,0,0,0-.081.173.172.172,0,0,0,.114.157.858.858,0,0,0,.212.031h.293a.945.945,0,0,1,.634.173A.665.665,0,0,1,24.789,25.592ZM22.5,25.121a.945.945,0,0,0-.634-.173h-.293a.861.861,0,0,1-.211-.031.171.171,0,0,1-.114-.157.182.182,0,0,1,.081-.173.4.4,0,0,1,.211-.031h1.008v-.471h-1.09c-.586,0-.781.346-.781.66,0,.691.634.66,1.139.676a.289.289,0,0,1,.195.047.236.236,0,0,1,.065.157.2.2,0,0,1-.065.141.38.38,0,0,1-.211.047H20.739v.471H21.8c.553,0,.862-.22.862-.691A.664.664,0,0,0,22.5,25.121Zm-2.082.707H19.13v-.44h1.252v-.44H19.13v-.409h1.285v-.456H18.593v2.2h1.821v-.456Zm-2.407-1.634a1.407,1.407,0,0,0-.667-.11H16.088v2.2h.553v-.8h.586a.527.527,0,0,1,.39.094.682.682,0,0,1,.1.44v.267h.537v-.424a.7.7,0,0,0-.081-.408.634.634,0,0,0-.276-.189.607.607,0,0,0,.39-.581A.49.49,0,0,0,18.007,24.194Zm-3.09-.11h-1.74l-.7.723-.667-.723h-2.2v2.2h2.163l.7-.723.667.723H14.2v-.738h.683c.472,0,.943-.126.943-.738C15.828,24.209,15.34,24.084,14.917,24.084Zm2.651.911a.7.7,0,0,1-.26.031l-.667.016v-.5h.667a.454.454,0,0,1,.26.047.2.2,0,0,1,.114.189A.272.272,0,0,1,17.568,24.995Zm-2.651.11H14.2v-.566h.716c.2,0,.325.079.325.267A.29.29,0,0,1,14.917,25.1Zm-2.1.078.846-.864v1.775Zm-1.317.644h-1.35v-.44h1.2v-.44h-1.2v-.409h1.366l.6.644-.618.644ZM23.276,22.5H22.5l-1.025-1.65V22.5H20.366l-.212-.487H19.016L18.8,22.5H18.17a1.2,1.2,0,0,1-.8-.251,1.125,1.125,0,0,1-.277-.833,1.111,1.111,0,0,1,.293-.864,1.129,1.129,0,0,1,.829-.251h.52v.471h-.52a.588.588,0,0,0-.423.126.7.7,0,0,0-.146.5.767.767,0,0,0,.146.518.556.556,0,0,0,.374.11h.244l.781-1.728h.813l.911,2.074V20.3h.846l.96,1.524V20.3h.553v2.2ZM16.82,20.3h-.553v2.2h.553Zm-1.155.094a1.35,1.35,0,0,0-.65-.094H13.763v2.2H14.3v-.8h.585a.572.572,0,0,1,.407.094.648.648,0,0,1,.081.424V22.5h.553v-.44a.571.571,0,0,0-.1-.393.679.679,0,0,0-.26-.188.625.625,0,0,0,.39-.581A.541.541,0,0,0,15.665,20.392Zm-2.293,1.65H12.1V21.6h1.252v-.456H12.1v-.393h1.268V20.3H11.551v2.2h1.821ZM11.144,20.3H10.25L9.583,21.79,8.868,20.3H7.989v2.074L7.062,20.3H6.249l-.976,2.2h.585l.211-.487H7.209l.211.487H8.526V20.769l.8,1.728h.472l.8-1.728V22.5h.553V20.3Zm8.815,1.241-.374-.864-.374.864Zm-4.716-.346a.512.512,0,0,1-.276.047H14.3v-.487h.667a.742.742,0,0,1,.276.031.231.231,0,0,1,.1.2A.214.214,0,0,1,15.243,21.193Zm-8.977.346.374-.864.374.864ZM24.659,13.4H5.257v7.918l.667-1.461H7.339l.2.361v-.361H9.193l.374.785.358-.785H15.21a.986.986,0,0,1,.618.173v-.173h1.447v.173a2,2,0,0,1,.911-.173h2.1l.2.361v-.361h1.545l.228.361v-.361h1.512v3.079H22.236l-.293-.471v.471h-1.9l-.211-.5h-.472l-.211.5h-.992a2.005,2.005,0,0,1-.878-.188v.188H14.917V22.23c0-.094-.016-.11-.081-.11h-.081v.817H10.2v-.393l-.163.393h-.96l-.163-.377v.377H7.079l-.2-.5H6.412l-.211.5H5.257v9.285h19.4v-5.64a2.053,2.053,0,0,1-.8.141H22.447v-.189a1.288,1.288,0,0,1-.732.189H17.259v-.707c0-.094-.016-.094-.1-.094H17.08v.8H15.617V25.89a1.847,1.847,0,0,1-.764.11H14.69v.723H12.9l-.423-.471-.472.471H9.128V23.644h2.927l.423.471.455-.471H14.9a1.26,1.26,0,0,1,.764.188v-.188h1.756a1.43,1.43,0,0,1,.748.188v-.188h2.651v.188a1.109,1.109,0,0,1,.667-.188h1.48v.188a1.206,1.206,0,0,1,.683-.188h1.008Z" transform="translate(-4.07 -12.85)"/></g><g transform="translate(-353.169 481.9)"><g class="w" transform="translate(21.051 0)"><path class="f" d="M22.851-93.8H37.562v15.78H22.851Z" transform="translate(-26.641 90.014)"/></g><g class="x" transform="translate(0 0)"><path class="f" d="M-4.916-93.8h21.2v15.911h-21.2Z" transform="translate(1.126 90.014)"/></g><g class="y" transform="translate(27.741 2.598)"><path class="f" d="M31.675-90.378H46.186v13.313H31.675Z" transform="translate(-35.465 86.587)"/></g><g class="z" transform="translate(14.316 2.73)"><path class="f" d="M13.967-90.2H28.379v14.962H13.967Z" transform="translate(-17.758 86.413)"/></g><g class="aa" transform="translate(34.875 0)"><path class="f" d="M41.084-93.8H51.733v15.78H41.084Z" transform="translate(-44.875 90.014)"/></g></g><g transform="translate(-306.983 479.663)"><path class="d" d="M169.482,101.937c0-3.792-4.771-6.887-10.657-6.887s-10.655,3.092-10.655,6.887v.4c0,4.025,4.169,7.28,10.655,7.28,6.526,0,10.658-3.258,10.658-7.28Z" transform="translate(-148.17 -95.05)"/><path class="f" d="M171.332,104.2c0,3.571-4.587,6.466-10.247,6.466s-10.245-2.9-10.245-6.466,4.587-6.466,10.245-6.466S171.332,100.625,171.332,104.2Z" transform="translate(-150.43 -97.319)"/><path class="f" d="M195.073,113.926c0,.011-.108.117-.041.2a1.28,1.28,0,0,0,1.167.212,3.31,3.31,0,0,0,1.059-.671,4.161,4.161,0,0,1,1.21-.768,1.381,1.381,0,0,1,.883-.023,2.677,2.677,0,0,1,.8.461c.7.528,3.521,2.989,4.008,3.414a24.174,24.174,0,0,1,4.51-1.445,5.583,5.583,0,0,0-2.138-3.365,6.577,6.577,0,0,1-5.549.091,5.482,5.482,0,0,0-2.1-.477,3.784,3.784,0,0,0-2.917,1.408Z" transform="translate(-187.82 -109.066)"/><path class="f" d="M167.1,117.97c-.032-.029-3.314-2.9-4.057-3.46a1.827,1.827,0,0,0-.921-.436,1.239,1.239,0,0,0-.437.041,3.934,3.934,0,0,0-1.2.715,3.48,3.48,0,0,1-1.171.725,1.9,1.9,0,0,1-1.291-.195.572.572,0,0,1-.213-.235.394.394,0,0,1,.109-.428l.906-.979c.1-.106.212-.21.319-.307a5.834,5.834,0,0,0-.824.187,3.623,3.623,0,0,1-.964.18,9.14,9.14,0,0,1-.982-.154,14.639,14.639,0,0,1-2.61-.944,5.771,5.771,0,0,0-2.4,3.477c.186.049.484.138.614.166,2.917.648,3.821,1.316,3.991,1.454a.962.962,0,0,1,1.511.089,1.1,1.1,0,0,1,.7-.244,1.266,1.266,0,0,1,.416.074.955.955,0,0,1,.586.53.941.941,0,0,1,.405-.086,1.228,1.228,0,0,1,.485.106,1.045,1.045,0,0,1,.573,1.156h.115a1.153,1.153,0,0,1,1.016,1.7,1.826,1.826,0,0,0,1,.269c.307-.038.427-.144.46-.2s.06-.089.032-.123l-.823-.913s-.135-.129-.091-.178.13.023.189.072c.419.35.93.877.93.877s.041.072.23.106a.86.86,0,0,0,.651-.153,1.085,1.085,0,0,0,.143-.153l-.009.008a.437.437,0,0,0-.025-.54l-.959-1.075s-.137-.127-.091-.178.13.022.19.072c.307.253.734.685,1.145,1.088a.783.783,0,0,0,.921-.032.663.663,0,0,0,.341-.6.7.7,0,0,0-.2-.4l-1.311-1.317s-.14-.118-.091-.178.131.022.189.071c.418.35,1.549,1.382,1.549,1.382a.794.794,0,0,0,.889-.018.593.593,0,0,0,.293-.47A.7.7,0,0,0,167.1,117.97Z" transform="translate(-150.87 -110.048)"/><path class="f" d="M186.065,147.317a3.878,3.878,0,0,0-.46.1c-.035-.018.012-.092.031-.14s.287-.852-.365-1.131a.767.767,0,0,0-.909.137c-.028.028-.04.026-.043-.011a.722.722,0,0,0-.507-.669.989.989,0,0,0-1.113.4.712.712,0,1,0-.706.806.7.7,0,0,0,.494-.2v.025a.938.938,0,0,0,.588,1.075.7.7,0,0,0,.689-.106c.057-.04.066-.023.057.029a.666.666,0,0,0,.5.721.636.636,0,0,0,.746-.14c.064-.058.081-.049.084.041a.9.9,0,1,0,.9-.939Z" transform="translate(-176.198 -137.773)"/><path class="d" d="M166.97,114.824c-1.012-.881-3.348-2.917-3.98-3.388a2.782,2.782,0,0,0-.824-.48,1.364,1.364,0,0,0-.405-.063,1.689,1.689,0,0,0-.514.087,4.358,4.358,0,0,0-1.21.768l-.02.015a3.371,3.371,0,0,1-1.035.659,1.768,1.768,0,0,1-.382.043.973.973,0,0,1-.718-.232c-.018-.023,0-.06.035-.114h0l.889-.959a3.677,3.677,0,0,1,2.869-1.382h.075a5.353,5.353,0,0,1,2,.471,6.153,6.153,0,0,0,2.713.651,7.1,7.1,0,0,0,2.98-.714c-.117-.1-.236-.192-.361-.286a6.515,6.515,0,0,1-2.61.594,5.755,5.755,0,0,1-2.539-.614,5.732,5.732,0,0,0-2.168-.511h-.084a3.754,3.754,0,0,0-2.471.878,4.912,4.912,0,0,0-1.228.224,3.282,3.282,0,0,1-.869.167c-.111,0-.307-.011-.329-.011a17.044,17.044,0,0,1-3.124-.866c-.127.091-.25.183-.368.278a15.428,15.428,0,0,0,3.385.979c.14.009.287.025.436.025a3.664,3.664,0,0,0,.981-.183c.187-.052.4-.111.614-.154l-.175.173-.9.978a.461.461,0,0,0-.124.5.637.637,0,0,0,.238.264,1.873,1.873,0,0,0,.959.244,1.78,1.78,0,0,0,.382-.04,3.475,3.475,0,0,0,1.2-.737,4.01,4.01,0,0,1,1.176-.7,1.354,1.354,0,0,1,.329-.045.742.742,0,0,1,.084,0,1.777,1.777,0,0,1,.89.425c.741.557,4.023,3.428,4.056,3.457a.631.631,0,0,1,.2.482.522.522,0,0,1-.263.419.8.8,0,0,1-.43.135.726.726,0,0,1-.381-.111c-.012-.011-1.136-1.041-1.55-1.382a.341.341,0,0,0-.195-.1.111.111,0,0,0-.086.041c-.064.08.008.19.094.264l1.314,1.32a.614.614,0,0,1,.181.356.6.6,0,0,1-.307.545.852.852,0,0,1-.461.154.674.674,0,0,1-.375-.114l-.189-.186c-.344-.339-.7-.689-.959-.907a.358.358,0,0,0-.2-.1.112.112,0,0,0-.083.035c-.029.034-.051.092.023.19a.532.532,0,0,0,.068.074l.958,1.075a.367.367,0,0,1,.021.461l-.034.043a.917.917,0,0,1-.089.086.768.768,0,0,1-.468.153.866.866,0,0,1-.13-.011.334.334,0,0,1-.189-.08l-.011-.012c-.052-.054-.536-.548-.935-.881a.336.336,0,0,0-.187-.1.11.11,0,0,0-.086.038c-.08.087.04.216.089.264l.818.9a.211.211,0,0,1-.031.055c-.029.04-.129.14-.425.177a.851.851,0,0,1-.109,0,1.875,1.875,0,0,1-.8-.238,1.219,1.219,0,0,0-1.1-1.739h-.044a1.086,1.086,0,0,0-.614-1.145,1.271,1.271,0,0,0-.51-.112.689.689,0,0,1-.97-.441,1.365,1.365,0,0,0-.439-.077,1.162,1.162,0,0,0-.682.218,1.029,1.029,0,0,0-1.535-.086,10.946,10.946,0,0,0-3.965-1.449c-.13-.029-.431-.115-.614-.169-.029.146-.054.293-.069.444l.6.141a10.244,10.244,0,0,1,3.825,1.371,1.061,1.061,0,0,0-.08.4,1.038,1.038,0,0,0,1.035,1.036.986.986,0,0,0,.19-.018,1.2,1.2,0,0,0,.78.9,1.015,1.015,0,0,0,.368.072.938.938,0,0,0,.235-.029,1.2,1.2,0,0,0,1.048.683.921.921,0,0,0,.316-.055,1.216,1.216,0,0,0,2,.385,2.275,2.275,0,0,0,1.033.307,1.276,1.276,0,0,0,.154-.009.945.945,0,0,0,.7-.344.516.516,0,0,0,.043-.069,1.25,1.25,0,0,0,.33.052,1.118,1.118,0,0,0,.668-.239.921.921,0,0,0,.393-.573.065.065,0,0,0,0-.008,1.084,1.084,0,0,0,.223.023,1.245,1.245,0,0,0,.686-.218.987.987,0,0,0,.491-.881,1.132,1.132,0,0,0,.227.023,1.188,1.188,0,0,0,.642-.2.941.941,0,0,0,.447-.728.988.988,0,0,0-.143-.586,26.472,26.472,0,0,1,4.258-1.332c-.012-.153-.034-.3-.06-.442A24.563,24.563,0,0,0,166.97,114.824Zm-6.486,3.749a.827.827,0,0,1-.834-.8c0-.037,0-.14-.091-.14a.154.154,0,0,0-.1.054.588.588,0,0,1-.41.186.708.708,0,0,1-.27-.06c-.476-.192-.482-.519-.461-.649a.124.124,0,0,0-.018-.1l-.029-.026h-.029a.153.153,0,0,0-.083.034.691.691,0,0,1-.4.144.634.634,0,0,1-.226-.045.877.877,0,0,1-.546-1.013.083.083,0,0,0-.026-.081l-.044-.037-.041.04a.651.651,0,1,1,.193-.551l.021.175.1-.154a.952.952,0,0,1,.757-.413.961.961,0,0,1,.281.043.657.657,0,0,1,.461.614c.008.086.067.089.08.089a.109.109,0,0,0,.075-.038.651.651,0,0,1,.479-.2.9.9,0,0,1,.358.081c.614.262.335,1.039.332,1.048-.052.129-.055.186,0,.218l.023.012h.018a.416.416,0,0,0,.118-.032,1.05,1.05,0,0,1,.327-.071h0a.835.835,0,1,1,0,1.669Z" transform="translate(-150.616 -107.172)"/><path class="f" d="M501.021,107.543a2.483,2.483,0,0,0-3.5,0,2.82,2.82,0,0,0,0,3.423,2.51,2.51,0,0,0,3.5,0A2.826,2.826,0,0,0,501.021,107.543Zm-.953,2.763a1.052,1.052,0,0,1-1.607,0,2.11,2.11,0,0,1,0-2.109,1.058,1.058,0,0,1,1.607,0,2.13,2.13,0,0,1,0,2.109Z" transform="translate(-443.4 -105.013)"/><path class="f" d="M440.414,107.255a2.917,2.917,0,0,0-1.339-.3,1.969,1.969,0,0,0-1.635.6,1.758,1.758,0,0,0-.338.987h1.154a.856.856,0,0,1,.17-.421.758.758,0,0,1,.606-.209,1.242,1.242,0,0,1,.582.107.4.4,0,0,1,.2.387.361.361,0,0,1-.258.341,1.911,1.911,0,0,1-.479.1l-.408.051a2.917,2.917,0,0,0-1.056.293,1.3,1.3,0,0,0-.656,1.228,1.257,1.257,0,0,0,.407,1,1.612,1.612,0,0,0,1.032.355c2.61.117,2.58-1.374,2.61-1.689v-1.721A1.164,1.164,0,0,0,440.414,107.255Zm-.606,2.61a.954.954,0,0,1-.342.826,1.242,1.242,0,0,1-.722.227.657.657,0,0,1-.419-.137.528.528,0,0,1-.172-.442.547.547,0,0,1,.281-.508,1.75,1.75,0,0,1,.55-.163l.273-.051a2.1,2.1,0,0,0,.321-.083,1.151,1.151,0,0,0,.23-.115Z" transform="translate(-392.624 -105.129)"/><path class="f" d="M408.017,108.054a.778.778,0,0,1,.658.276,1.041,1.041,0,0,1,.181.461h1.286a1.761,1.761,0,0,0-.681-1.36,2.626,2.626,0,0,0-1.48-.384,2.157,2.157,0,0,0-1.667.652,2.6,2.6,0,0,0-.6,1.825,2.537,2.537,0,0,0,.546,1.689,2.109,2.109,0,0,0,1.707.652,2.057,2.057,0,0,0,1.752-.783,1.927,1.927,0,0,0,.414-1.029h-1.282a1.088,1.088,0,0,1-.226.586.758.758,0,0,1-.628.226.838.838,0,0,1-.847-.57,2.165,2.165,0,0,1-.124-.8,2.365,2.365,0,0,1,.124-.843A.864.864,0,0,1,408.017,108.054Z" transform="translate(-366.175 -105.204)"/><path class="f" d="M389.737,107.06a2.223,2.223,0,0,0-2.487,2.341v2.378h1.2v-2.23a1.83,1.83,0,0,1,.143-.809.992.992,0,0,1,.966-.461h.143a1.773,1.773,0,0,1,.2.017v-1.22l-.1-.008Z" transform="translate(-350.548 -105.216)"/><path class="f" d="M357.312,110.526a.906.906,0,0,1-.164.183,1.03,1.03,0,0,1-.671.181,1.134,1.134,0,0,1-.639-.153,1.094,1.094,0,0,1-.485-.952h3.319a5.94,5.94,0,0,0-.04-.9,2.248,2.248,0,0,0-.362-.943,1.87,1.87,0,0,0-.788-.675,2.61,2.61,0,0,0-1.075-.212,2.2,2.2,0,0,0-1.63.631,2.481,2.481,0,0,0-.628,1.816,2.209,2.209,0,0,0,.7,1.825,2.49,2.49,0,0,0,1.606.56,2.218,2.218,0,0,0,1.715-.665,1.616,1.616,0,0,0,.413-.692Zm-1.612-2.234a.946.946,0,0,1,.711-.259,1.045,1.045,0,0,1,.708.246,1,1,0,0,1,.316.72h-2.052A1.228,1.228,0,0,1,355.7,108.293Z" transform="translate(-322.53 -105.207)"/><path class="f" d="M314.855,111.724h-1.1V108.96a.77.77,0,0,0-.806-.852.807.807,0,0,0-.83.852v2.763h-1.1V108.96a.762.762,0,0,0-.8-.852.8.8,0,0,0-.831.852v2.763h-1.1v-2.731a1.877,1.877,0,0,1,1.928-2,1.688,1.688,0,0,1,1.363.636,1.744,1.744,0,0,1,1.362-.636,1.828,1.828,0,0,1,1.9,2Z" transform="translate(-283.719 -105.163)"/><path class="f" d="M470.128,97.639s-1.208-.129-1.208.841v1.286a1.425,1.425,0,0,0-.522-.5,1.469,1.469,0,0,0-.737-.183,1.747,1.747,0,0,0-1.435.669,2.948,2.948,0,0,0-.537,1.867,2.48,2.48,0,0,0,.547,1.658,2.306,2.306,0,0,0,1.71.614,1.938,1.938,0,0,0,2.183-1.894Zm-1.438,4.9a.881.881,0,0,1-.768.376.842.842,0,0,1-.755-.378,1.935,1.935,0,0,1-.249-1.042,1.828,1.828,0,0,1,.244-.979.837.837,0,0,1,.768-.4.9.9,0,0,1,.6.218,1.565,1.565,0,0,1,.422,1.228A1.67,1.67,0,0,1,468.69,102.54Z" transform="translate(-416.945 -97.236)"/><path class="f" d="M358.789,156.063a.564.564,0,0,1-.176.418.582.582,0,0,1-.424.173h-.6v-4.169a1.922,1.922,0,0,1,.723-1.661,2.406,2.406,0,0,1,1.569-.444,2.1,2.1,0,0,1,1.57.649,2.565,2.565,0,0,1,.563,1.735,2.809,2.809,0,0,1-.528,1.775,1.661,1.661,0,0,1-1.359.662,1.812,1.812,0,0,1-.775-.153,1.306,1.306,0,0,1-.565-.539Zm2.011-3.247a1.749,1.749,0,0,0-.266-1.044.881.881,0,0,0-.758-.365.869.869,0,0,0-.741.365,1.776,1.776,0,0,0-.246,1.044,1.563,1.563,0,0,0,.264.992.881.881,0,0,0,.758.367.846.846,0,0,0,.723-.367,1.642,1.642,0,0,0,.266-.992" transform="translate(-325.442 -142.063)"/><path class="f" d="M420.808,154.782v-.295a1.325,1.325,0,0,1-.841.614,1.707,1.707,0,0,1-1.047-.088,1.944,1.944,0,0,1-.893-.768,2.682,2.682,0,0,1-.371-1.489,2.884,2.884,0,0,1,.493-1.747,1.9,1.9,0,0,1,1.586-.669,2.145,2.145,0,0,1,1.535.453,1.932,1.932,0,0,1,.711,1.669v2.456a2.048,2.048,0,0,1-2.252,2.1,1.973,1.973,0,0,1-1.974-1.5h1.263a.97.97,0,0,0,1,.444.955.955,0,0,0,.52-.339,1.432,1.432,0,0,0,.269-.835m-1.976-2q0,1.2.694,1.331a.935.935,0,0,0,1.021-.322,1.283,1.283,0,0,0,.226-.6,2.553,2.553,0,0,0,.009-.809,1.61,1.61,0,0,0-.287-.714.767.767,0,0,0-.657-.307.8.8,0,0,0-.8.434,2.26,2.26,0,0,0-.209.992" transform="translate(-376.284 -142.029)"/><path class="f" d="M391.958,150.8a2.929,2.929,0,0,0-1.34-.3,1.964,1.964,0,0,0-1.633.6,1.757,1.757,0,0,0-.338.986H389.8a.857.857,0,0,1,.169-.419.77.77,0,0,1,.614-.209,1.256,1.256,0,0,1,.58.106.4.4,0,0,1,.2.388.359.359,0,0,1-.258.339,1.877,1.877,0,0,1-.477.106l-.41.049a2.939,2.939,0,0,0-1.055.295,1.3,1.3,0,0,0-.655,1.22,1.258,1.258,0,0,0,.407,1,1.618,1.618,0,0,0,1.032.355c2.61.117,2.579-1.382,2.61-1.689v-1.713a1.145,1.145,0,0,0-.583-1.124m-.606,2.61a.96.96,0,0,1-.342.826,1.251,1.251,0,0,1-.721.226.66.66,0,0,1-.419-.135.53.53,0,0,1-.173-.444.543.543,0,0,1,.282-.507,1.75,1.75,0,0,1,.55-.163l.272-.051a2,2,0,0,0,.321-.083,1.3,1.3,0,0,0,.232-.115Z" transform="translate(-351.612 -142.162)"/><path class="f" d="M452.94,150.913a2.483,2.483,0,0,0-3.5,0,2.826,2.826,0,0,0,0,3.423,2.509,2.509,0,0,0,3.5,0,2.832,2.832,0,0,0,0-3.423m-.953,2.763a1.051,1.051,0,0,1-1.607,0,1.7,1.7,0,0,1-.282-1.055,1.726,1.726,0,0,1,.282-1.055,1.061,1.061,0,0,1,1.607,0,2.129,2.129,0,0,1,0,2.109" transform="translate(-402.701 -141.903)"/></g><g transform="translate(-237.6 480.501)"><path class="v" d="M252,5.1V17.849h10.822V15.094h-6.776V12.145h6.142V9.561h-6.142V8.245h6.776V5.1H252" transform="translate(-227.431 -4.609)"/><path class="v" d="M378,7.141h1.462V4.411l2.633,3.51V2.851H378v4.29" transform="translate(-341.146 -2.578)"/><path class="v" d="M378,66.728h1.462v2.632l2.633-3.51v6.63H378V66.728" transform="translate(-341.146 -59.436)"/><path class="v" d="M435.291,5.514h.157a.811.811,0,0,0,.19-.013.115.115,0,0,0,.06-.044.138.138,0,0,0,.021-.079.126.126,0,0,0-.028-.086.13.13,0,0,0-.08-.041c-.017,0-.069,0-.155,0h-.165Zm-.212.606V5.07h.446a.759.759,0,0,1,.244.028.24.24,0,0,1,.122.1.3.3,0,0,1,.046.165.281.281,0,0,1-.069.2.334.334,0,0,1-.208.1.5.5,0,0,1,.113.088,1.2,1.2,0,0,1,.121.17l.128.2h-.253l-.153-.228a1.493,1.493,0,0,0-.112-.154.163.163,0,0,0-.064-.044.348.348,0,0,0-.107-.012h-.043V6.12Z" transform="translate(-392.66 -4.581)"/><path class="v" d="M430.534.248a.819.819,0,1,0,.819.819A.82.82,0,0,0,430.534.248Zm0,1.833a1.014,1.014,0,1,1,1.014-1.014,1.015,1.015,0,0,1-1.014,1.014Z" transform="translate(-387.643 -0.053)"/><g transform="translate(0 0.145)"><path class="v" d="M133.609,4.483V7.311h1a4.3,4.3,0,0,0,1.442-.156,1.224,1.224,0,0,0,.57-.489,1.44,1.44,0,0,0,.206-.775,1.369,1.369,0,0,0-.29-.9,1.234,1.234,0,0,0-.733-.442,7.957,7.957,0,0,0-1.313-.068Zm-3.931,10.237V1.851h4.916a16.667,16.667,0,0,1,3.282.2,3.592,3.592,0,0,1,1.967,1.288,3.982,3.982,0,0,1,.792,2.563,4.164,4.164,0,0,1-.457,2.038,3.653,3.653,0,0,1-1.161,1.3,4.071,4.071,0,0,1-1.431.624,16.34,16.34,0,0,1-2.862.189h-1.019v4.672Z" transform="translate(-117.035 -1.723)"/><path class="v" d="M3.7,9.053A2.9,2.9,0,0,0,4.5,10.74a1.915,1.915,0,0,0,1.484.521,1.694,1.694,0,0,0,1.411-.49,1.1,1.1,0,0,0,.45-.919A.908.908,0,0,0,7.6,9.2a2.46,2.46,0,0,0-1.144-.648A12.916,12.916,0,0,1,1.793,6.876,2.811,2.811,0,0,1,.552,4.143,3.349,3.349,0,0,1,1.977,1.5C2.861.729,4.037.54,5.9.54a7.141,7.141,0,0,1,3.944.87c.86.58,1.1,1.779,1.422,2.914l-3.7.195a2.18,2.18,0,0,0-.633-1.3,2.306,2.306,0,0,0-1.317-.46,1.674,1.674,0,0,0-1.1.338.817.817,0,0,0-.389.7.762.762,0,0,0,.341.625A7.157,7.157,0,0,0,6.973,5.2a8.31,8.31,0,0,1,3.621,1.629,3.193,3.193,0,0,1,1.071,2.56,3.939,3.939,0,0,1-1.485,3.075,5.993,5.993,0,0,1-4.2,1.286A7.854,7.854,0,0,1,1.6,12.669C.578,11.95.316,10.481,0,9.248Z" transform="translate(0 -0.54)"/></g></g></g></svg>