<?xml version="1.0" standalone="no"?>
<!DOCTYPE svg PUBLIC "-//W3C//DTD SVG 20010904//EN"
 "http://www.w3.org/TR/2001/REC-SVG-20010904/DTD/svg10.dtd">
<svg version="1.0" xmlns="http://www.w3.org/2000/svg"
 width="24" height="24" viewBox="0 0 24 24"
 preserveAspectRatio="xMidYMid meet">
<metadata>
Created by potrace 1.16, written by Peter Selinger 2001-2019
</metadata>
<g transform="translate(0.000000,195.000000) scale(0.100000,-0.100000)"
fill="#000000" stroke="none">
<path d="M170 1426 l0 -505 22 -7 c48 -15 49 -5 46 493 l-3 463 28 0 27 0 0
-835 0 -835 -25 0 -25 0 0 309 c0 273 -2 312 -16 326 -9 9 -23 14 -31 11 -8
-3 -17 -6 -19 -6 -2 0 -4 -155 -4 -345 0 -388 -5 -365 79 -365 l40 0 3 -53 3
-52 107 -3 107 -3 17 56 18 55 445 0 446 0 15 -52 15 -53 104 -3 c118 -3 121
-1 121 66 l0 42 41 0 c22 0 49 5 60 10 18 10 19 28 19 674 0 593 -2 665 -16
677 -11 9 -20 10 -32 2 -16 -9 -17 -66 -20 -652 l-2 -641 -25 0 -25 0 0 835 0
835 25 0 25 0 0 -149 c0 -142 1 -150 20 -156 45 -14 50 5 50 191 l0 174 -95 0
-95 0 0 -255 0 -255 -57 0 -58 0 3 191 c2 134 -1 195 -9 205 -17 20 -281 20
-298 0 -8 -10 -11 -71 -9 -205 l3 -191 -27 0 -28 0 -2 203 -3 202 -139 3 c-93
2 -143 -1 -152 -9 -11 -9 -14 -52 -14 -205 l0 -194 -25 0 -25 0 0 193 c0 137
-3 196 -12 205 -13 13 -252 18 -282 6 -14 -5 -16 -33 -16 -205 l0 -199 -55 0
-55 0 -2 253 -3 252 -92 3 -93 3 0 -505z m1450 -103 l0 -28 -103 3 c-119 4
-160 -7 -155 -41 3 -21 7 -22 131 -25 l127 -3 0 -149 0 -150 -42 0 -43 0 0 82
c0 66 4 87 18 101 14 14 15 22 7 38 -10 18 -20 19 -123 17 -110 -3 -112 -3
-115 -27 -2 -15 3 -28 12 -33 13 -7 16 -27 16 -93 l0 -85 -60 0 -60 0 0 84 c0
63 4 87 15 96 9 7 15 23 13 34 -3 20 -9 21 -117 21 -99 0 -115 -2 -125 -18 -9
-14 -7 -21 7 -31 14 -11 17 -29 17 -100 l0 -86 -55 0 -55 0 0 85 c0 67 3 87
15 91 8 4 15 17 15 30 0 31 -21 36 -139 32 -75 -2 -96 -6 -105 -20 -8 -13 -6
-21 7 -36 13 -14 17 -37 17 -100 l0 -82 -55 0 -55 0 0 82 c0 63 4 86 17 100
13 15 15 23 7 36 -9 14 -30 18 -105 20 -52 2 -104 0 -116 -3 -26 -6 -31 -36
-8 -55 11 -9 15 -34 15 -96 l0 -84 -42 0 -43 0 3 150 3 150 467 2 467 3 3 22
c3 17 -4 26 -23 33 -18 7 -186 9 -470 8 l-443 -3 -5 28 -4 27 634 0 633 0 0
-27z m0 -488 l0 -25 -629 0 -629 0 -4 25 -5 25 633 0 634 0 0 -25z m0 -245 l0
-150 -55 0 -55 0 0 109 c0 145 5 141 -160 141 -166 0 -162 4 -158 -141 l3
-109 -27 0 -28 0 0 113 c0 75 -4 117 -12 125 -8 8 -54 12 -143 12 -89 0 -135
-4 -143 -12 -8 -8 -12 -50 -12 -125 l0 -113 -25 0 -25 0 0 113 c0 75 -4 117
-12 125 -17 17 -269 17 -286 0 -8 -8 -12 -50 -12 -125 l0 -113 -54 0 -55 0 -3
150 -3 150 633 0 632 0 0 -150z m-910 -60 l0 -90 -85 0 -85 0 0 90 0 90 85 0
85 0 0 -90z m370 0 l0 -90 -90 0 -90 0 0 90 0 90 90 0 90 0 0 -90z m360 0 l0
-90 -90 0 -90 0 0 90 0 90 90 0 90 0 0 -90z m180 -240 l0 -90 -630 0 -630 0 0
90 0 90 630 0 630 0 0 -90z"/>
</g>
</svg>
