<?xml version="1.0" standalone="no"?>
<!DOCTYPE svg PUBLIC "-//W3C//DTD SVG 20010904//EN"
 "http://www.w3.org/TR/2001/REC-SVG-20010904/DTD/svg10.dtd">
<svg version="1.0" xmlns="http://www.w3.org/2000/svg"
 width="24" height="24" viewBox="0 0 24 24"
 preserveAspectRatio="xMidYMid meet">
<metadata>
Created by potrace 1.16, written by Peter Selinger 2001-2019
</metadata>
<g transform="translate(0.000000,195.000000) scale(0.100000,-0.100000)"
fill="#000000" stroke="none">
<path d="M671 1902 c-5 -9 -11 -123 -13 -252 -4 -229 -4 -237 -31 -301 -31
-75 -32 -82 -13 -98 22 -18 41 -4 64 47 38 86 45 126 46 264 l1 138 78 0 77 0
0 -132 c0 -188 19 -252 114 -378 30 -41 64 -101 75 -132 l20 -58 -37 0 c-55
-1 -72 -19 -72 -74 l0 -46 -235 0 -235 0 0 48 c0 60 23 142 58 204 26 45 26
48 9 65 -25 26 -46 9 -87 -73 l-35 -69 -3 -481 -3 -482 31 -26 32 -26 292 0
c272 0 294 1 312 19 20 18 21 18 32 0 11 -17 25 -19 130 -19 128 0 142 5 142
52 0 22 -11 36 -55 68 l-55 41 0 148 0 149 44 11 c93 23 190 117 216 209 5 20
10 85 10 143 0 90 -3 108 -18 122 -39 35 -130 9 -106 -30 6 -10 22 -19 36 -21
20 -2 25 -8 21 -23 -5 -18 -16 -19 -233 -19 -219 0 -228 1 -233 20 -5 19 0 20
158 20 136 0 165 3 176 16 9 11 10 20 2 32 -8 14 -30 18 -122 20 -102 2 -111
4 -111 22 0 31 -38 119 -71 164 -126 174 -129 183 -129 466 0 288 10 270 -150
270 -103 0 -121 -2 -129 -18z m838 -1133 c-19 -122 -108 -199 -229 -199 -54 0
-74 5 -117 30 -62 35 -104 99 -113 172 l-6 48 236 0 237 0 -8 -51z m-529 4 c0
-48 48 -149 89 -187 l31 -30 0 -133 0 -133 -207 -2 -208 -3 0 -25 0 -25 208
-3 207 -2 0 -43 c0 -23 -7 -53 -16 -65 -15 -22 -18 -22 -275 -22 -160 0 -268
4 -280 10 -15 9 -19 22 -19 65 l0 54 53 3 c48 3 52 5 52 28 0 23 -4 25 -52 28
l-53 3 0 260 0 259 235 0 235 0 0 -37z m231 -265 l39 -11 0 -148 0 -148 -32
-24 c-18 -13 -39 -27 -45 -31 -10 -6 -13 34 -13 183 0 105 3 191 6 191 4 0 24
-5 45 -12z"/>
</g>
</svg>
